<?xml version="1.0" encoding="UTF-8"?>
<!DOCTYPE svg PUBLIC "-//W3C//DTD SVG 1.1//EN" "http://www.w3.org/Graphics/SVG/1.1/DTD/svg11.dtd">
<!-- Creator: CorelDRAW -->
<svg xmlns="http://www.w3.org/2000/svg" xml:space="preserve" width="100mm" height="100mm" version="1.1" style="shape-rendering:geometricPrecision; text-rendering:geometricPrecision; image-rendering:optimizeQuality; fill-rule:evenodd; clip-rule:evenodd"
viewBox="0 0 10000 10000"
 xmlns:xlink="http://www.w3.org/1999/xlink"
 xmlns:xodm="http://www.corel.com/coreldraw/odm/2003">
 <defs>
  <style type="text/css">
   <![CDATA[
    .str0 {stroke:white;stroke-width:282.22;stroke-miterlimit:22.9256}
    .fil0 {fill:none}
    .fil1 {fill:#2B2A29}
    .fil3 {fill:#F48500;fill-rule:nonzero}
    .fil2 {fill:white;fill-rule:nonzero}
   ]]>
  </style>
 </defs>
 <g id="Слой_x0020_1">
  <metadata id="CorelCorpID_0Corel-Layer"/>
  <g id="_1772722886112">
   <path class="fil0 str0" d="M6981.92 2306.02c-1333.33,-666.67 -2666.67,-666.67 -4000,0"/>
   <path class="fil0 str0" d="M2981.92 2306.02c1333.33,-666.67 2666.67,-666.67 4000,0"/>
   <line class="fil0 str0" x1="5976.75" y1="5269.96" x2="5981.92" y2= "6806.01" />
   <line class="fil0 str0" x1="3987.09" y1="5269.96" x2="3981.92" y2= "6806.01" />
   <line class="fil0 str0" x1="6839.27" y1="2245.59" x2="5971.28" y2= "5309.73" />
   <line class="fil0 str0" x1="3124.57" y1="2245.59" x2="3992.56" y2= "5309.73" />
   <line class="fil0 str0" x1="5839.55" y1="6788.05" x2="8481.92" y2= "6806.01" />
   <line class="fil0 str0" x1="4124.29" y1="6788.05" x2="1481.92" y2= "6806.01" />
   <polyline class="fil0 str0" points="8483.35,6663.63 8483.35,7663.63 4983.35,7663.63 "/>
   <polyline class="fil0 str0" points="1480.49,6663.63 1480.49,7663.63 4980.49,7663.63 "/>
   <ellipse class="fil1 str0" cx="7747.45" cy="8054.31" rx="476.41" ry="34.95"/>
   <ellipse class="fil1 str0" cx="2216.39" cy="8054.31" rx="476.41" ry="34.95"/>
   <line class="fil0 str0" x1="7747.45" y1="8054.31" x2="7747.45" y2= "7663.63" />
   <line class="fil0 str0" x1="2216.39" y1="8054.31" x2="2216.39" y2= "7663.63" />
   <line class="fil0 str0" x1="7160.73" y1="6797.03" x2="7160.73" y2= "6258.58" />
   <line class="fil0 str0" x1="2803.11" y1="6797.03" x2="2803.11" y2= "6258.58" />
   <line class="fil0 str0" x1="8102.14" y1="6668.69" x2="8102.14" y2= "6207.21" />
   <line class="fil0 str0" x1="1861.7" y1="6668.69" x2="1861.7" y2= "6207.21" />
   <g>
    <rect class="fil1 str0" x="7919.16" y="6111.09" width="954.23" height="121.31"/>
    <rect class="fil1 str0" x="6875.87" y="6111.09" width="954.23" height="121.31"/>
    <ellipse class="fil1 str0" cx="8982.27" cy="6171.75" rx="211.71" ry="60.93"/>
    <ellipse class="fil1 str0" cx="6766.99" cy="6171.75" rx="211.71" ry="60.93"/>
   </g>
   <g>
    <rect class="fil1 str0" x="1090.45" y="6111.09" width="954.23" height="121.31"/>
    <rect class="fil1 str0" x="2133.74" y="6111.09" width="954.23" height="121.31"/>
    <ellipse class="fil1 str0" cx="981.57" cy="6171.75" rx="211.71" ry="60.93"/>
    <ellipse class="fil1 str0" cx="3196.85" cy="6171.75" rx="211.71" ry="60.93"/>
   </g>
  </g>
  <g>
   <path class="fil2" d="M3570.53 2270.68l50.82 205.48 -102.74 25.41 -50.82 -205.48 102.74 -25.41zm1411.4 -231.62l0 211.68 0 0 -41.71 0.31 -41.75 0.95 -41.82 1.55 -41.86 2.14 -41.9 2.71 -41.97 3.26 -42.04 3.8 -42.08 4.3 -42.12 4.8 -42.19 5.28 -42.24 5.72 -42.3 6.17 -42.36 6.59 -42.39 6.98 -42.46 7.36 -42.52 7.71 -42.55 8.06 -42.61 8.37 -42.66 8.68 -42.72 8.95 -42.76 9.21 -42.81 9.44 -42.87 9.67 -42.91 9.86 -42.95 10.04 -43.01 10.2 -43.05 10.33 -43.1 10.45 -43.16 10.55 -43.2 10.61 -43.23 10.67 -43.28 10.7 -50.82 -205.48 43.34 -10.72 43.39 -10.71 43.44 -10.67 43.46 -10.61 43.52 -10.55 43.57 -10.47 43.63 -10.34 43.67 -10.2 43.71 -10.04 43.75 -9.87 43.81 -9.68 43.88 -9.45 43.9 -9.19 43.96 -8.94 44.01 -8.65 44.07 -8.34 44.12 -8.01 44.16 -7.66 44.23 -7.28 44.26 -6.87 44.34 -6.47 44.38 -6.02 44.43 -5.56 44.5 -5.06 44.54 -4.56 44.6 -4.02 44.65 -3.48 44.72 -2.89 44.76 -2.28 44.82 -1.67 44.87 -1.01 44.91 -0.35 0 0zm1411.4 231.62l-50.82 205.48 -43.28 -10.7 -43.23 -10.67 -43.2 -10.61 -43.16 -10.55 -43.1 -10.45 -43.05 -10.33 -43.01 -10.2 -42.95 -10.04 -42.91 -9.86 -42.87 -9.67 -42.81 -9.44 -42.76 -9.21 -42.72 -8.95 -42.66 -8.68 -42.61 -8.37 -42.55 -8.06 -42.52 -7.71 -42.46 -7.36 -42.39 -6.98 -42.36 -6.59 -42.3 -6.17 -42.24 -5.72 -42.19 -5.28 -42.12 -4.8 -42.08 -4.3 -42.04 -3.8 -41.97 -3.26 -41.9 -2.71 -41.86 -2.14 -41.82 -1.55 -41.75 -0.95 -41.71 -0.31 0 -211.68 44.91 0.35 44.87 1.01 44.82 1.67 44.76 2.28 44.72 2.89 44.65 3.48 44.6 4.02 44.54 4.56 44.5 5.06 44.43 5.56 44.38 6.02 44.34 6.47 44.26 6.87 44.23 7.28 44.16 7.66 44.12 8.01 44.07 8.34 44.01 8.65 43.96 8.94 43.9 9.19 43.88 9.45 43.81 9.68 43.75 9.87 43.71 10.04 43.67 10.2 43.63 10.34 43.57 10.47 43.52 10.55 43.46 10.61 43.44 10.67 43.39 10.71 43.34 10.72zm-50.82 205.48l50.82 -205.48 102.74 25.41 -50.82 205.48 -102.74 -25.41z"/>
  </g>
  <g>
   <path class="fil2" d="M4234.99 3974.61l0 211.68 -105.84 0 0 -211.68 105.84 0zm928.83 211.68l-928.83 0 0 -211.68 928.83 0 0 0 0 211.68zm580.41 0l-580.41 0 0 -211.68 580.41 0 0 211.68zm0 0l0 -211.68 105.84 0 0 211.68 -105.84 0z"/>
  </g>
  <g>
   <path class="fil3" d="M4387.94 2543.46c-21.96,-54.16 4.13,-115.89 58.29,-137.85 54.16,-21.96 115.89,4.13 137.85,58.29l-196.14 79.56zm503.79 1241.97l-503.79 -1241.97 196.14 -79.56 503.79 1241.97 -196.14 79.56zm196.14 -79.56c21.96,54.16 -4.13,115.89 -58.29,137.85 -54.16,21.96 -115.89,-4.13 -137.85,-58.29l196.14 -79.56z"/>
  </g>
 </g>
</svg>
